<?xml version="1.0" encoding="utf-8"?>
<!-- Generator: Adobe Illustrator 17.0.0, SVG Export Plug-In . SVG Version: 6.00 Build 0)  -->
<!DOCTYPE svg PUBLIC "-//W3C//DTD SVG 1.1//EN" "http://www.w3.org/Graphics/SVG/1.1/DTD/svg11.dtd">
<svg version="1.1" id="Ebene_1" xmlns="http://www.w3.org/2000/svg" xmlns:xlink="http://www.w3.org/1999/xlink" x="0px" y="0px"
	 width="566.93px" height="566.93px" viewBox="0 0 566.93 566.93" enable-background="new 0 0 566.93 566.93" xml:space="preserve">
<g>
	<g>
		<g>
			
				<linearGradient id="SVGID_1_" gradientUnits="userSpaceOnUse" x1="-416.8521" y1="560.1938" x2="-416.8521" y2="283.1785" gradientTransform="matrix(0.9799 0.1992 -0.1992 0.9799 773.1605 -33.9832)">
				<stop  offset="0" style="stop-color:#00AFAA"/>
				<stop  offset="1" style="stop-color:#00C8C2"/>
			</linearGradient>
			<path fill="url(#SVGID_1_)" d="M492.008,404.694c-7.513,9.529-18.882,14.144-30.743,14.319
				c3.312,10.687,2.286,22.37-5.097,31.926c-12.72,16.565-37.76,19.861-55.754,7.523c-18.202-12.421-22.517-35.871-9.675-52.37
				c0.465-0.74,1.367-0.974,1.919-1.696l-118.16-80.061l-140.998,23.863c0.277,0.849,0.878,1.43,1.026,2.253
				c4.726,20.321-8.967,39.901-30.693,43.703c-21.615,3.7-42.904-9.683-47.578-30.035c-2.688-11.77,1.259-22.776,8.751-31.099
				c-10.656-5.087-19.126-14.07-21.916-25.777c-4.596-20.295,9.062-39.924,30.755-43.566c21.631-3.78,42.92,9.603,47.611,29.875
				c0.139,0.863-0.11,1.647,0.037,2.469l89.032-15.068l-74.646-50.601c-0.457,0.7-0.542,1.559-1.085,2.241
				c-12.712,16.525-37.76,19.861-55.841,7.506c-18.029-12.386-22.301-35.828-9.58-52.393c7.427-9.547,18.866-14.064,30.708-14.368
				c-3.407-10.665-2.372-22.388,5.003-31.903c12.763-16.556,37.76-19.861,55.884-7.497s22.438,35.814,9.589,52.353
				c-0.465,0.74-1.375,1.014-1.816,1.634l118.178,80.189l140.912-23.88c-0.269-0.889-0.878-1.43-1.104-2.311
				c-4.615-20.424,9.053-39.884,30.771-43.646c21.545-3.797,42.842,9.545,47.551,29.946c2.696,11.73-1.275,22.856-8.854,31.162
				c10.75,5.065,19.288,13.936,22.003,25.795c4.604,20.255-9.029,39.763-30.747,43.526c-21.631,3.78-42.92-9.603-47.611-29.875
				c-0.234-0.84,0.11-1.647-0.037-2.469l-88.981,15.037l74.594,50.633c0.457-0.7,0.542-1.559,1.085-2.241
				c12.842-16.499,37.76-19.861,55.798-7.514C500.457,364.688,504.78,388.098,492.008,404.694z"/>
			<path fill="#00AFAA" d="M158.964,132.656c9.014,3.853,31.829,30.848,9.775,55.267
				C168.739,187.924,157.707,132.119,158.964,132.656z"/>
			<path fill="#00AFAA" d="M462.805,197.684c-14.023-0.777-46.246,16.897-34.976,46.549
				C427.83,244.233,464.17,197.759,462.805,197.684z"/>
		</g>
		<g>
			<polygon fill="#00AFAA" points="323.694,357.67 384.931,248.974 302.544,343.339 			"/>
			<polygon fill="#00AFAA" points="220.336,333.502 201.541,206.606 243.087,329.651 			"/>
		</g>
	</g>
	
		<linearGradient id="SVGID_2_" gradientUnits="userSpaceOnUse" x1="-555.771" y1="361.9842" x2="-277.4189" y2="361.9842" gradientTransform="matrix(0.9799 0.1992 -0.1992 0.9799 773.1605 -33.9832)">
		<stop  offset="0" style="stop-color:#00AFAA"/>
		<stop  offset="1" style="stop-color:#00C8C2"/>
	</linearGradient>
	<path fill="url(#SVGID_2_)" d="M446.983,167.941c-1.682-5.048-5.929-8.808-11.142-9.868l-243.576-49.683
		c-5.212-1.06-10.589,0.734-14.116,4.712c-1.76,1.994-2.927,4.379-3.441,6.903c-0.511,2.515-0.378,5.162,0.466,7.677l33.329,99.762
		l19.144,57.297c0.061,0.021,0.135,0.038,0.196,0.059l15.563,45.792c0.011,0.1,0.004,0.218,0.019,0.315l1.143,3.95
		c0.962,1.581,2.192,2.426,3.641,2.722c3.92,0.797,8.654-2.435,9.424-6.224c0,0,1.967,7.666,6.562,8.6
		c2.315,0.471,5.247-0.741,8.941-5.448c1.559,5.762,3.809,8.04,6.121,8.51c4.629,0.941,9.479-5.338,9.479-5.338
		c-0.736,3.622,2.434,8.526,6.362,9.325c1.264,0.257,3.119,0.137,4.432-0.64l3.939-3.953l0.017-0.083l31.349-38.877
		c-0.028-0.006-0.06-0.012-0.088-0.018c0.028,0.006,0.06,0.012,0.088,0.018l39.846-43.819c3.99-45.559-20.799-85.519-67.036-94.92
		c46.237,9.401,70.839,50.468,66.849,96.027l69.553-78.404C447.555,178.353,448.676,172.981,446.983,167.941z M235.471,286.814
		L235.471,286.814c1.165,0.237,2.282,0.435,3.412,0.606C237.752,287.249,236.635,287.051,235.471,286.814z M327.028,300h-0.011
		c-4.575,0-7.842-2.041-14.449-4.209C319.162,297.954,322.467,300,327.028,300z"/>
	<path fill="#2B3540" d="M227.696,236.323c1.449-8.326,7.791-31.197,42.833-24.073c14.412,2.93,16.482,8.153,13.498,22.827
		c-1.846,9.077-12.088,16.088-30.093,24.38C230.088,270.462,224.929,252.293,227.696,236.323z M319.587,272.806
		c17.651,19.442,29.5,4.731,33.186-11.052c1.917-8.231,5.014-31.762-30.031-38.888c-14.405-2.929-18.35,1.071-21.334,15.745
		C299.559,247.684,306.253,258.142,319.587,272.806z M270.802,307.987c0.718,5.28,6.528,4.537,7.606-0.766
		c-1.127,5.544,3.524,9.19,7.586,2.44c8.645-14.34,18.409-23.598,7.698-25.798c-8.375-1.703-11.819,6.336-11.819,6.336
		s-1.995-8.809-7.677-9.964C261.504,277.651,268.575,291.673,270.802,307.987z"/>
	<path fill="#00AFAA" d="M166.571,138.547c0,0,24.221,24.958,2.168,49.377L166.571,138.547z"/>
</g>
</svg>
