<?xml version="1.0" encoding="utf-8"?>
<!-- Generator: Adobe Illustrator 17.0.0, SVG Export Plug-In . SVG Version: 6.00 Build 0)  -->
<!DOCTYPE svg PUBLIC "-//W3C//DTD SVG 1.1//EN" "http://www.w3.org/Graphics/SVG/1.1/DTD/svg11.dtd">
<svg version="1.1" id="Ebene_1" xmlns="http://www.w3.org/2000/svg" xmlns:xlink="http://www.w3.org/1999/xlink" x="0px" y="0px"
	 width="566.93px" height="566.93px" viewBox="0 0 566.93 566.93" enable-background="new 0 0 566.93 566.93" xml:space="preserve">
<g>
	<path fill-rule="evenodd" clip-rule="evenodd" fill="#00C8C2" d="M47.669,102.915H282.94V71.009H25.583
		c-9.08,0-16.484,7.394-16.484,16.485v335.308c0,9.1,7.525,16.504,16.484,16.504H282.94v-72.085H47.669
		c-3.552,0-6.665-2.986-6.665-6.636V109.571C41.004,105.896,43.996,102.915,47.669,102.915L47.669,102.915z M282.94,497.043v-31.941
		h-59.266c-8.776,0-15.962,7.197-15.962,15.993l0,0c0,8.776,7.232,15.948,15.962,15.948H282.94L282.94,497.043z M282.94,264.632
		l-24.071,20.553c1.007,2.723,1.564,5.669,1.564,8.751c0,13.898-11.296,25.189-25.195,25.189c-13.898,0-25.188-11.291-25.188-25.189
		c0-1.296,0.106-2.566,0.293-3.816l-39.593-21.94c-4.469,4.049-10.401,6.524-16.905,6.524c-11.94,0-21.961-8.341-24.542-19.501
		l-52.504-5.521c-4.14-0.435-7.349-3.907-7.349-8.169c0-4.544,3.669-8.219,8.214-8.219c0.409,0.03,0.84,0.035,1.245,0.101
		l52.099,5.477c4.008-8.599,12.739-14.556,22.835-14.556c13.903,0,25.195,11.291,25.195,25.188c0,1.464-0.132,2.895-0.375,4.287
		L218,275.589c4.515-4.236,10.573-6.852,17.238-6.852c4.844,0,9.368,1.376,13.215,3.75l34.487-29.465V264.632z"/>
	<path fill-rule="evenodd" clip-rule="evenodd" fill="#2B3540" d="M282.94,102.915h235.261c3.669,0,6.66,3.102,6.66,6.655v251.015
		c0,3.528-3.113,6.636-6.66,6.636H282.94v72.085h257.352c8.948,0,16.474-7.536,16.474-16.504V87.494
		c0-8.969-7.405-16.485-16.474-16.485H282.94V102.915L282.94,102.915z M421.493,151.016c12.597,0,23.043,9.277,24.895,21.368
		l43.42,8.664c3.766,0.734,6.605,4.064,6.605,8.063c0,4.545-3.664,8.214-8.209,8.214c-0.562,0-1.088-0.066-1.615-0.163
		l-43.146-8.608c-4.326,7.667-12.53,12.845-21.949,12.845c-7.809,0-14.799-3.568-19.42-9.166l-42.574,16.794l0.01,0.754
		c0,13.898-11.292,25.195-25.194,25.195c-4.61,0-8.938-1.24-12.653-3.411l-38.722,33.069v-21.61l27.978-23.899
		c-1.164-2.895-1.796-6.043-1.796-9.343c0-13.903,11.296-25.193,25.194-25.193c7.764,0,14.713,3.538,19.343,9.079l42.651-16.833
		l-0.01-0.622C396.298,162.306,407.595,151.016,421.493,151.016L421.493,151.016z M282.94,465.102h59.24
		c8.781,0,15.967,7.228,15.967,15.993l0,0c0,8.741-7.258,15.948-15.967,15.948h-59.24V465.102z"/>
</g>
</svg>
