<?xml version="1.0" encoding="utf-8"?>
<!-- Generator: Adobe Illustrator 17.0.0, SVG Export Plug-In . SVG Version: 6.00 Build 0)  -->
<!DOCTYPE svg PUBLIC "-//W3C//DTD SVG 1.1//EN" "http://www.w3.org/Graphics/SVG/1.1/DTD/svg11.dtd">
<svg version="1.1" id="Ebene_1" xmlns="http://www.w3.org/2000/svg" xmlns:xlink="http://www.w3.org/1999/xlink" x="0px" y="0px"
	 width="566.93px" height="566.93px" viewBox="0 0 566.93 566.93" enable-background="new 0 0 566.93 566.93" xml:space="preserve">
<g>
	<path fill-rule="evenodd" clip-rule="evenodd" fill="#2B3540" d="M302.48,126.329c81.141,8.22,146.788,70.766,158.941,151.404
		c-12.532,0.302-22.432,10.64-22.13,23.173c0.302,12.546,10.688,22.383,23.22,22.081c-8.244,81.117-70.791,146.751-151.429,158.893
		c-0.302-12.522-10.627-22.434-23.16-22.132l1.636,67.917c33.76-0.813,65.593-9.101,93.952-23.23l22.248,34.669
		c7.288,11.349,22.523,14.674,33.885,7.387c11.313-7.249,14.673-22.572,7.424-33.885l-22.312-34.754
		c51.764-42.066,84.183-106.776,82.453-178.595C504.241,176.104,401.965,78.64,278.813,81.607l1.601,66.468
		C292.439,147.786,302.034,138.173,302.48,126.329L302.48,126.329z M317.693,347.85c-8.916,6.931-20.041,11.165-32.191,11.457
		l-2.693-111.796l1.075,2.452c29.736-0.171,54.247,23.515,54.966,53.361c0.05,2.081-0.036,4.127-0.199,6.139l32.799,17.897
		c10.56,5.743,14.476,19.131,8.719,29.665c-5.768,10.573-19.118,14.501-29.666,8.733L317.693,347.85L317.693,347.85z
		 M493.551,88.801c4.451,4.254,7.005,9.46,7.155,15.689c0.291,12.063-9.256,22.107-21.344,22.398
		c-6.39,0.154-12.216-2.469-16.321-6.757c-31.212-30.252-70.055-52.638-113.242-64.014c-10.081-1.765-17.849-10.451-18.105-21.077
		c-0.291-12.1,9.281-22.157,21.381-22.448c2.675-0.064,5.238,0.345,7.624,1.155C411.38,27.049,456.945,53.3,493.551,88.801z"/>
	<path fill-rule="evenodd" clip-rule="evenodd" fill="#00C8C2" d="M287.922,459.748c-12.508,0.301-22.383,10.675-22.082,23.171
		l0.001,0.051c-81.117-8.245-146.752-70.792-158.893-151.417c12.521-0.302,22.433-10.64,22.131-23.173
		c-0.302-12.521-10.701-22.382-23.222-22.081c8.257-81.13,70.816-146.764,151.455-158.881c1.017,11.809,11.075,20.948,23.101,20.659
		l-1.601-66.468C155.647,84.574,58.183,186.85,61.15,310.002c1.73,71.819,37.24,134.893,90.957,174.418l-20.601,35.788
		c-6.72,11.699-2.652,26.768,9.035,33.489c11.649,6.696,26.781,2.639,33.501-9.011l20.542-35.7
		c29.019,12.747,61.202,19.492,94.975,18.679L287.922,459.748L287.922,459.748z M285.502,359.307
		c-30.194,0.727-55.256-23.154-55.983-53.348c-0.355-14.725,5.157-28.217,14.37-38.265l-26.735-60.41
		c-4.848-10.949,0.191-23.995,11.139-28.844c11.011-4.874,23.982,0.129,28.857,11.14l25.659,57.933L285.502,359.307L285.502,359.307
		z M64.67,99.132c34.867-37.21,79.102-65.625,129.084-81.364c2.331-0.924,4.883-1.456,7.546-1.521
		c12.1-0.291,22.145,9.293,22.436,21.393c0.256,10.626-7.085,19.677-17.068,21.924c-42.576,13.455-80.296,37.672-110.028,69.392
		c-3.894,4.48-9.587,7.381-15.977,7.535c-12.088,0.291-22.109-9.281-22.399-21.344C58.119,109.104,60.437,103.447,64.67,99.132z"/>
</g>
</svg>
