<?xml version="1.0" encoding="utf-8"?>
<!-- Generator: Adobe Illustrator 17.0.0, SVG Export Plug-In . SVG Version: 6.00 Build 0)  -->
<!DOCTYPE svg PUBLIC "-//W3C//DTD SVG 1.1//EN" "http://www.w3.org/Graphics/SVG/1.1/DTD/svg11.dtd">
<svg version="1.1" id="Ebene_1" xmlns="http://www.w3.org/2000/svg" xmlns:xlink="http://www.w3.org/1999/xlink" x="0px" y="0px"
	 width="566.93px" height="566.93px" viewBox="0 0 566.93 566.93" enable-background="new 0 0 566.93 566.93" xml:space="preserve">
<circle fill="#00B0AA" cx="283.558" cy="282.789" r="264.055"/>
<path fill="#2A343F" d="M283.557,565.336c-155.796,0-282.545-126.75-282.545-282.547c0-155.796,126.749-282.546,282.545-282.546
	c155.797,0,282.547,126.75,282.547,282.546C566.104,438.586,439.354,565.336,283.557,565.336z M283.557,37.225
	c-135.404,0-245.563,110.159-245.563,245.564s110.159,245.565,245.563,245.565c135.405,0,245.565-110.16,245.565-245.565
	S418.962,37.225,283.557,37.225z"/>
<g id="Twitter__x28_alt_x29__2_">
	<g>
		<path fill="#FFFFFF" d="M395.125,272.875c16.058-1.325,26.947-8.625,31.141-18.531c-5.795,3.559-23.776,7.437-33.704,3.742
			c-0.49-2.333-1.03-4.548-1.564-6.549c-7.57-27.785-33.474-50.168-60.619-47.466c2.196-0.887,4.424-1.713,6.645-2.454
			c2.985-1.07,20.519-3.925,17.758-10.11c-2.333-5.442-23.745,4.114-27.778,5.364c5.324-2.001,14.128-5.444,15.071-11.562
			c-8.159,1.117-16.163,4.976-22.349,10.582c2.234-2.405,3.927-5.333,4.287-8.488c-21.76,13.895-34.467,41.912-44.748,69.092
			c-8.079-7.824-15.233-13.988-21.654-17.41c-18.012-9.661-39.549-19.737-73.358-32.289c-1.036,11.187,5.534,26.06,24.459,35.95
			c-4.101-0.549-11.596,0.676-17.597,2.113c2.445,12.816,10.418,23.373,32.022,28.476c-9.871,0.652-14.972,2.898-19.594,7.737
			c4.492,8.91,15.462,19.402,35.193,17.246c-21.933,9.456-8.941,26.972,8.91,24.356c-30.452,31.458-78.47,29.15-106.044,2.839
			c71.993,98.096,228.481,58.014,251.798-36.474c17.472,0.149,27.747-6.052,34.113-12.887
			C417.449,277.86,402.862,276.095,395.125,272.875z"/>
	</g>
	<g>
		<path fill="#FFFFFF" d="M394.125,271.875c16.058-1.325,26.947-8.625,31.141-18.531c-5.795,3.559-23.776,7.437-33.704,3.742
			c-0.49-2.333-1.03-4.548-1.564-6.549c-7.57-27.785-33.474-50.168-60.619-47.466c2.196-0.887,4.424-1.713,6.645-2.454
			c2.985-1.07,20.519-3.925,17.758-10.11c-2.333-5.442-23.745,4.114-27.778,5.364c5.324-2.001,14.128-5.444,15.071-11.562
			c-8.159,1.117-16.163,4.976-22.349,10.582c2.234-2.405,3.927-5.333,4.287-8.488c-21.76,13.895-34.467,41.912-44.748,69.092
			c-8.079-7.824-15.233-13.988-21.654-17.41c-18.012-9.661-39.549-19.737-73.358-32.289c-1.036,11.187,5.534,26.06,24.459,35.95
			c-4.101-0.549-11.596,0.676-17.597,2.113c2.445,12.816,10.418,23.373,32.022,28.476c-9.871,0.652-14.972,2.898-19.594,7.737
			c4.492,8.91,15.462,19.402,35.193,17.246c-21.933,9.456-8.941,26.972,8.91,24.356c-30.452,31.458-78.47,29.15-106.044,2.839
			c71.993,98.096,228.481,58.014,251.798-36.474c17.472,0.149,27.747-6.052,34.113-12.887
			C416.449,276.86,401.862,275.095,394.125,271.875z"/>
	</g>
</g>
</svg>
