<?xml version="1.0" encoding="utf-8"?>
<!-- Generator: Adobe Illustrator 17.0.0, SVG Export Plug-In . SVG Version: 6.00 Build 0)  -->
<!DOCTYPE svg PUBLIC "-//W3C//DTD SVG 1.1//EN" "http://www.w3.org/Graphics/SVG/1.1/DTD/svg11.dtd">
<svg version="1.1" id="Ebene_1" xmlns="http://www.w3.org/2000/svg" xmlns:xlink="http://www.w3.org/1999/xlink" x="0px" y="0px"
	 width="40px" height="40px" viewBox="0 0 40 40" enable-background="new 0 0 40 40" xml:space="preserve">
<g>
	<defs>
		<rect id="SVGID_1_" x="6.093" y="5.488" width="28.346" height="28.346"/>
	</defs>
	<clipPath id="SVGID_2_">
		<use xlink:href="#SVGID_1_"  overflow="visible"/>
	</clipPath>
	<path clip-path="url(#SVGID_2_)" fill="#036964" d="M22.627,15.799l0.691,1.371c-0.155,0.294-0.281,0.599-0.376,0.912l-1.457,0.479
		c-0.111,0.676-0.114,1.374,0,2.096l1.458,0.481c0.096,0.313,0.222,0.618,0.378,0.912l-0.69,1.367
		c0.399,0.557,0.89,1.053,1.481,1.483l1.371-0.691c0.294,0.155,0.599,0.281,0.912,0.376l0.479,1.457
		c0.676,0.111,1.374,0.114,2.096,0l0.482-1.458c0.312-0.096,0.617-0.222,0.911-0.378l1.368,0.69c0.556-0.399,1.052-0.89,1.482-1.481
		l-0.691-1.371c0.155-0.294,0.281-0.599,0.376-0.912l1.457-0.479c0.111-0.676,0.114-1.374,0-2.096l-1.457-0.481
		c-0.097-0.313-0.223-0.619-0.379-0.912l0.691-1.367c-0.4-0.557-0.891-1.052-1.482-1.483l-1.371,0.691
		c-0.294-0.155-0.599-0.281-0.912-0.376l-0.479-1.457c-0.676-0.111-1.374-0.114-2.096,0l-0.482,1.458
		c-0.312,0.096-0.617,0.222-0.911,0.378l-1.368-0.691C23.553,14.717,23.058,15.208,22.627,15.799 M26.317,18.004
		c0.886-0.886,2.32-0.886,3.206,0s0.886,2.32,0,3.206c-0.886,0.885-2.32,0.885-3.206,0C25.431,20.324,25.431,18.89,26.317,18.004
		 M20.765,24.709c-0.136,0.016-0.341,0.064-0.499,0.381v1.383c0.283,0.149,0.235,0.304,0.68,0.892
		c0.712,0.943,0.689,0.442,0.79,1.338c0.149,1.319-0.304,1.614-0.575,2.615c-0.007,0.026-0.015,0.054-0.022,0.081
		c0.033-0.003,0.066-0.009,0.097-0.016c0.518-0.111,0.868-0.33,1.281-0.622l1.603-1.356c0.878-0.834,1.3-0.926,1.656-1.275
		c-1.491-0.373-2.904-1.143-4.07-2.31C21.357,25.47,21.043,25.098,20.765,24.709 M20.266,31.566c3.043,0,5.819-1.141,7.924-3.021
		l0.162-0.161c1.341-0.065,2.67-0.438,3.873-1.115c-2.516,3.947-6.932,6.565-11.959,6.565V31.566z M20.266,23.928
		c0.064,0.113,0.131,0.226,0.201,0.338c-0.074-0.003-0.14-0.007-0.201-0.011V23.928z M20.266,5.488
		c4.954,0,9.315,2.543,11.848,6.395c-1.206-0.655-2.533-1.009-3.869-1.057c-0.302-0.273-0.618-0.53-0.946-0.771
		c0.069,0.157,0.1,0.398,0.108,0.745h-0.632c-0.167-0.623-0.085-0.341-0.421-0.842c0.258-0.093,0.458-0.146,0.611-0.14
		c-0.419-0.285-0.857-0.545-1.311-0.776c0.32,0.534-0.068,0.423-0.133,2.11c-0.193,0.055-0.384,0.116-0.574,0.184
		c-0.665-0.502-0.958-1.319-1.298-1.946c-0.693-1.275-0.895-1.255-1.455-1.478c-0.292-0.047-0.587-0.084-0.885-0.11
		c0.013,0.682,0.039,0.242,0.767,0.962c1.846,1.825,0.788,0.973,0.279,2.879c1.345-0.263,0.914-0.731,1.079,0.406
		c-0.617,0.366-1.198,0.814-1.728,1.344c-0.577,0.577-1.057,1.215-1.44,1.893V12.83c0.38,0.167,0.616,0.135,0.616-0.556
		c0-0.946,0.013-1.234-0.616-1.483V5.488z"/>
	<path clip-path="url(#SVGID_2_)" fill="#00AFAA" d="M20.266,26.473V25.09c-0.12,0.241-0.213,0.635-0.227,1.287
		C20.134,26.411,20.207,26.442,20.266,26.473 M20.266,15.286c-0.761,1.347-1.14,2.851-1.133,4.355h-2.041
		c-0.205,0.88-0.396,0.579-0.42,1.684c0.574,0.208,0.432-0.011,0.631,0.842h0.632v-0.842c1.449,0,0.869-0.169,0.85,1.078
		l0.736-0.208c0.03,0.1,0.063,0.199,0.098,0.298v0.937h0.387c0.08,0.168,0.168,0.334,0.26,0.498v0.327
		c-0.782-0.057-0.607-0.267-1.558-0.757l-0.889-0.374c-0.932-0.256-0.798,0.074-2.027-0.499c-0.782-0.364-0.782-0.256-0.805-1.3
		c-0.898,0.326-0.229,0.331-1.052,0.421l-0.479-0.994c-0.023-0.04-0.056-0.092-0.078-0.133l-0.48-0.994
		c-0.176-0.338-0.286-0.522-0.373-0.625c-0.076-0.091,0.615,2.146,0.545,2.131c-0.07-0.016-0.98-2.189-1.091-2.318
		c0-2.439,0.505-3.698,0.378-4.58c-0.001-0.003-0.247-0.079-0.09-0.908c0.153-0.809,0.194-0.98,0.194-2.103
		c-0.117,0.078-0.342,0.193-0.528,0.312c-0.335,0.216-1.022,0.985-1.408,1.281c-1.363,1.937-2.165,4.297-2.165,6.846
		c0,6.575,5.33,11.905,11.906,11.905v2.268c-7.828,0-14.173-6.345-14.173-14.173c0-7.827,6.345-14.173,14.173-14.173v5.303
		c-0.167-0.066-0.379-0.129-0.647-0.201l-0.936,0.603l-0.028,0.978c0.627,0.069,1.202,0.479,1.611,0.659V15.286z"/>
</g>
</svg>
