<?xml version="1.0" encoding="utf-8"?>
<!-- Generator: Adobe Illustrator 17.0.0, SVG Export Plug-In . SVG Version: 6.00 Build 0)  -->
<!DOCTYPE svg PUBLIC "-//W3C//DTD SVG 1.1//EN" "http://www.w3.org/Graphics/SVG/1.1/DTD/svg11.dtd">
<svg version="1.1" id="Ebene_1" xmlns="http://www.w3.org/2000/svg" xmlns:xlink="http://www.w3.org/1999/xlink" x="0px" y="0px"
	 width="40px" height="40px" viewBox="0 0 40 40" enable-background="new 0 0 40 40" xml:space="preserve">
<g>
	<defs>
		<rect id="SVGID_1_" x="0.159" y="7.345" width="39.544" height="25.214"/>
	</defs>
	<clipPath id="SVGID_2_">
		<use xlink:href="#SVGID_1_"  overflow="visible"/>
	</clipPath>
	<path clip-path="url(#SVGID_2_)" fill="#036964" d="M32.903,29.839c2.254,0,4.079-1.827,4.079-4.079
		c0-1.671-1.005-3.108-2.442-3.738c-0.501-0.22-1.055-0.342-1.638-0.342c-0.604,0-1.177,0.132-1.693,0.367
		c1.14-1.272,1.832-2.952,1.832-4.793c0-3.969-3.218-7.188-7.188-7.188c-2.481,0-4.635,1.246-5.923,3.118V9.311
		c1.652-1.234,3.702-1.966,5.923-1.966c5.473,0,9.908,4.436,9.908,9.908c0,0.765-0.087,1.51-0.251,2.225
		c2.462,1.023,4.192,3.45,4.192,6.282c0,3.755-3.044,6.799-6.799,6.799H19.931v-2.721L32.903,29.839z"/>
	<path clip-path="url(#SVGID_2_)" fill="#00AFAA" d="M19.931,13.183c-0.863,1.254-1.336,2.789-1.256,4.417v0.013
		c-0.428-1.19-1.309-2.164-2.433-2.716c-0.645-0.316-1.37-0.494-2.137-0.494c-1.876,0-3.502,1.063-4.312,2.618l-0.016,0.031
		l-0.017,0.032L9.73,17.149l-0.016,0.032l-0.007,0.014L9.7,17.213l-0.016,0.031v0.001c-0.279,0.614-0.436,1.295-0.436,2.015
		c0,0.146,0.007,0.29,0.019,0.434c-0.398-0.099-0.814-0.151-1.242-0.151c-2.843,0-5.148,2.305-5.148,5.148
		c0,2.844,2.305,5.148,5.148,5.148h11.906v2.721H7.97v-0.001c-4.32-0.03-7.812-3.54-7.812-7.868c0-3.964,2.932-7.243,6.745-7.787
		c0.992-3.03,3.841-5.219,7.203-5.219c1.117,0,2.178,0.242,3.133,0.676l0.003-0.007c0.679-1.191,1.598-2.227,2.69-3.042V13.183z"/>
</g>
</svg>
