<?xml version="1.0" encoding="utf-8"?>
<!-- Generator: Adobe Illustrator 17.0.0, SVG Export Plug-In . SVG Version: 6.00 Build 0)  -->
<!DOCTYPE svg PUBLIC "-//W3C//DTD SVG 1.1//EN" "http://www.w3.org/Graphics/SVG/1.1/DTD/svg11.dtd">
<svg version="1.1" id="Ebene_1" xmlns="http://www.w3.org/2000/svg" xmlns:xlink="http://www.w3.org/1999/xlink" x="0px" y="0px"
	 width="40px" height="40px" viewBox="0 0 40 40" enable-background="new 0 0 40 40" xml:space="preserve">
<g>
	<defs>
		<rect id="SVGID_1_" x="7.62" y="5.998" width="24.101" height="26.773"/>
	</defs>
	<clipPath id="SVGID_2_">
		<use xlink:href="#SVGID_1_"  overflow="visible"/>
	</clipPath>
	<path clip-path="url(#SVGID_2_)" fill="#036964" d="M26.699,12.818l0.237,4.591l0.44,0.038c0.857,0.075,1.612-0.558,1.687-1.415
		l0.281-3.214H26.699z M27.677,5.998v2.035L26.49,8.751l0.097,1.889l5.134-0.001c-0.162,1.861-0.324,3.721-0.487,5.583
		c-0.18,2.055-1.992,3.576-4.048,3.396l-0.361-0.032c-0.453,1.784-1.864,3.221-3.632,3.821l-0.196,1.154
		c-0.023,0.135-0.114,0.254-0.253,0.254h-0.849c0.189,1.192,0.641,2.297,1.294,3.254h4.194c0.374,0,0.619,0.32,0.681,0.681
		l0.568,3.34c0.062,0.364-0.312,0.681-0.681,0.681h-8.278V17.219L22.367,19l-0.86-3.112l2.525-2.013l-3.226-0.144l-1.133-3.023
		v0.001V5.998H27.677z"/>
	<path clip-path="url(#SVGID_2_)" fill="#00AFAA" d="M9.998,12.818l0.281,3.214c0.075,0.857,0.83,1.49,1.687,1.415l0.445-0.039
		l0.235-4.59H9.998z M19.673,32.771h-8.278c-0.368,0-0.744-0.311-0.681-0.681l0.569-3.339c0.063-0.369,0.306-0.682,0.68-0.682h4.195
		c0.653-0.957,1.104-2.062,1.293-3.254h-0.849c-0.139,0-0.23-0.116-0.253-0.254l-0.197-1.154c-1.767-0.6-3.179-2.037-3.631-3.821
		l-0.365,0.032c-2.056,0.18-3.869-1.341-4.049-3.396C7.945,14.36,7.782,12.5,7.62,10.639h5.134l0.102-1.888l-1.188-0.718V5.998
		h8.005v4.711l-1.133,3.022l-3.226,0.145l2.526,2.012L16.979,19l2.694-1.78V32.771z"/>
</g>
</svg>
