<?xml version="1.0" encoding="utf-8"?>
<!-- Generator: Adobe Illustrator 17.0.0, SVG Export Plug-In . SVG Version: 6.00 Build 0)  -->
<!DOCTYPE svg PUBLIC "-//W3C//DTD SVG 1.1//EN" "http://www.w3.org/Graphics/SVG/1.1/DTD/svg11.dtd">
<svg version="1.1" id="Ebene_1" xmlns="http://www.w3.org/2000/svg" xmlns:xlink="http://www.w3.org/1999/xlink" x="0px" y="0px"
	 width="40px" height="40px" viewBox="0 0 40 40" enable-background="new 0 0 40 40" xml:space="preserve">
<g>
	<defs>
		<rect id="SVGID_1_" x="0.539" y="5.673" width="37.773" height="28.346"/>
	</defs>
	<clipPath id="SVGID_2_">
		<use xlink:href="#SVGID_1_"  overflow="visible"/>
	</clipPath>
	<path clip-path="url(#SVGID_2_)" fill="#036964" d="M32.566,19.829c0.226,0.939,0.997,1.49,2.729,2.121
		c1.37,0.5,2.43,1.006,3.017,1.446l-0.596,4.977h-7.519l0.652-6.831c-0.619-0.457-1.343-0.883-2.159-1.287
		c0.07-0.139,0.122-0.286,0.159-0.446v-0.202c-0.902-0.091-1.63-0.368-2.151-0.738c0.211-0.172,0.314-0.484,0.287-0.806
		c-0.256,0.286-0.641,0.456-1.161,0.512c1.614-1.321,1.293-3.291,1.656-5.115c0.156-0.788,0.322-1.615,0.922-2.207
		c0.558-0.55,1.413-0.875,2.305-0.878c0.893,0.003,1.747,0.328,2.306,0.878c0.6,0.592,0.765,1.419,0.921,2.207
		c0.363,1.824,0.042,3.794,1.656,5.115c-0.52-0.056-0.904-0.226-1.16-0.512c-0.028,0.322,0.076,0.634,0.286,0.806
		c-0.52,0.37-1.249,0.647-2.15,0.738V19.829z M25.194,20.687c-0.627-0.229-1.154-0.449-1.593-0.675
		c-0.046-0.132,0.042-0.314,0.068-0.71c0.02-0.305-0.072-0.378-0.334-0.378c-0.33,0-0.769,0.189-1.072,0.1l-0.187-1.373
		c0.747-0.278,0.901-1.382,0.901-2.21c1.255-0.258,1.472-3.123,0.543-3.289c-0.124-0.321,0.847-3.137-0.166-4.721
		c-0.659-1.033-2.463-1.648-3.929-1.745v28.333l8.993-5.646l0.564-5.87C28.247,21.948,26.913,21.315,25.194,20.687"/>
	<path clip-path="url(#SVGID_2_)" fill="#00AFAA" d="M5.316,16.888c-0.867-0.237-1.1-2.227-0.481-2.384
		c-0.059-0.288-0.198-0.537-0.054-1.021c-0.211,0.013-0.36,0.021-0.56,0.206c0.01-0.242,0.478-0.903,0.598-1.088
		c0.062-0.096,0.118-0.18,0.17-0.253c0.26-1.216,1.264-1.685,1.881-1.949c0.094,0.113,0.496,0.242,0.737,0.228
		c-0.032-0.26,0.017-0.631,0.846-1.018c-0.05,1.243,2.743,0.871,3.009,2.67c0.087,0.595-0.037,1.223-0.046,2.213
		c0.497-0.152,0.932,1.635-0.21,2.399c-0.146,1.556-1.213,1.892-1.265,2.517c0.024,0.319,0.093,0.597,0.218,0.847
		C9.342,20.659,8.619,21.084,8,21.542l0.652,6.831H1.133l-0.595-4.977c0.586-0.44,1.646-0.946,3.016-1.446
		c0.873-0.318,2.424-0.921,2.68-1.949C6.275,19.8,6.37,19.386,6.3,19.225C6.005,18.539,5.332,18.195,5.316,16.888 M19.424,5.686
		c-0.136-0.009-0.269-0.014-0.397-0.014c-1.229,0-2.482,0.188-2.037,1.244c-3.27,0.683-1.715,3.007-1.715,5.242
		c-1.102,0.376-0.242,3.223,0.697,3.306c0.138,1.262,0.576,2.197,1.068,2.278L16.895,19c-0.285,0-1.426-0.334-1.361,0.234
		l0.067,0.584c-0.512,0.316-1.093,0.558-1.945,0.869c-1.72,0.627-3.054,1.261-3.789,1.816l0.564,5.87l8.993,5.646V5.686z"/>
</g>
</svg>
