<?xml version="1.0" encoding="utf-8"?>
<!-- Generator: Adobe Illustrator 17.0.0, SVG Export Plug-In . SVG Version: 6.00 Build 0)  -->
<!DOCTYPE svg PUBLIC "-//W3C//DTD SVG 1.1//EN" "http://www.w3.org/Graphics/SVG/1.1/DTD/svg11.dtd">
<svg version="1.1" id="Ebene_1" xmlns="http://www.w3.org/2000/svg" xmlns:xlink="http://www.w3.org/1999/xlink" x="0px" y="0px"
	 width="40px" height="40px" viewBox="0 0 40 40" enable-background="new 0 0 40 40" xml:space="preserve">
<g>
	<defs>
		<rect id="SVGID_1_" x="4.154" y="4.101" width="31.307" height="31.181"/>
	</defs>
	<clipPath id="SVGID_2_">
		<use xlink:href="#SVGID_1_"  overflow="visible"/>
	</clipPath>
	<path clip-path="url(#SVGID_2_)" fill="#036964" d="M30.55,10.738c-1.467,0-2.656,1.188-2.656,2.655
		c0,1.466,1.189,2.655,2.656,2.655c1.466,0,2.654-1.189,2.654-2.655C33.204,11.926,32.016,10.738,30.55,10.738 M19.807,25.537
		c2.397,0,4.343,1.945,4.343,4.343s-1.946,4.343-4.343,4.343v-2.255c1.154,0,2.088-0.935,2.088-2.089
		c0-1.153-0.934-2.087-2.088-2.087V25.537z M21.955,17l3.868-2.269c-0.12-0.426-0.185-0.875-0.185-1.338
		c0-0.413,0.052-0.813,0.148-1.196l-3.749-2.044c-0.6,0.513-1.379,0.823-2.23,0.823V8.791c0.692,0,1.253-0.561,1.253-1.253
		s-0.561-1.252-1.253-1.252V4.101c1.898,0,3.438,1.54,3.438,3.437c0,0.157-0.011,0.309-0.031,0.46l3.747,2.043
		c0.896-0.959,2.172-1.559,3.589-1.559c2.711,0,4.91,2.199,4.91,4.911s-2.199,4.911-4.91,4.911c-1.364,0-2.598-0.556-3.487-1.454
		l-3.866,2.268c0.031,0.184,0.048,0.373,0.048,0.566c0,1.897-1.54,3.437-3.438,3.437v-2.185c0.692,0,1.252-0.561,1.252-1.252
		c0-0.693-0.56-1.253-1.252-1.254v-2.184C20.62,16.246,21.367,16.528,21.955,17"/>
	<path clip-path="url(#SVGID_2_)" fill="#00AFAA" d="M10.434,30.591c-0.693,0-1.253,0.561-1.253,1.253s0.56,1.253,1.253,1.253
		c0.691,0,1.253-0.561,1.253-1.253S11.125,30.591,10.434,30.591 M8.497,17.595c-1.153,0-2.088,0.934-2.088,2.088
		c0,1.153,0.935,2.088,2.088,2.088s2.088-0.935,2.088-2.088C10.585,18.529,9.65,17.595,8.497,17.595 M19.807,23.121v-2.185h-0.001
		c-0.691,0-1.253-0.561-1.253-1.253c0-0.692,0.562-1.253,1.253-1.253h0.001v-2.185c-1.898,0-3.438,1.54-3.438,3.438
		C16.369,21.581,17.909,23.121,19.807,23.121 M19.807,10.976c-0.446,0-0.872-0.085-1.263-0.24l-6.299,6.753
		c0.378,0.644,0.595,1.394,0.595,2.194c0,0.672-0.153,1.308-0.424,1.875l5.125,4.616c0.66-0.404,1.436-0.638,2.266-0.638v2.255
		c-1.154,0-2.088,0.934-2.088,2.088s0.934,2.088,2.088,2.088v2.256c-1.653,0-3.091-0.925-3.825-2.285l-2.153,0.45
		c-0.261,1.64-1.682,2.894-3.395,2.894c-1.898,0-3.438-1.54-3.438-3.438s1.54-3.438,3.438-3.438c1.213,0,2.281,0.629,2.892,1.579
		l2.151-0.449c0.043-0.549,0.188-1.069,0.416-1.542l-5.121-4.611c-0.662,0.408-1.441,0.643-2.275,0.643
		c-2.398,0-4.343-1.945-4.343-4.343s1.945-4.343,4.343-4.343c0.705,0,1.371,0.169,1.96,0.467l6.275-6.73
		c-0.232-0.463-0.363-0.986-0.363-1.539c0-1.898,1.54-3.437,3.438-3.437v2.184c-0.692,0-1.253,0.561-1.253,1.253
		c0,0.692,0.561,1.253,1.253,1.253V10.976z"/>
</g>
</svg>
