<?xml version="1.0" encoding="utf-8"?>
<!-- Generator: Adobe Illustrator 17.0.0, SVG Export Plug-In . SVG Version: 6.00 Build 0)  -->
<!DOCTYPE svg PUBLIC "-//W3C//DTD SVG 1.1//EN" "http://www.w3.org/Graphics/SVG/1.1/DTD/svg11.dtd">
<svg version="1.1" id="Ebene_1" xmlns="http://www.w3.org/2000/svg" xmlns:xlink="http://www.w3.org/1999/xlink" x="0px" y="0px"
	 width="40px" height="40px" viewBox="0 0 40 40" enable-background="new 0 0 40 40" xml:space="preserve">
<g>
	<defs>
		<rect id="SVGID_1_" x="11.504" y="5.936" width="17.575" height="27.064"/>
	</defs>
	<clipPath id="SVGID_2_">
		<use xlink:href="#SVGID_1_"  overflow="visible"/>
	</clipPath>
	<path clip-path="url(#SVGID_2_)" fill="#036964" d="M20.291,8.447c0.347,0,0.627,0.281,0.627,0.628c0,0.346-0.28,0.627-0.627,0.627
		v16.571h3.052h0.021c0.421-0.008,0.773-0.295,0.879-0.684l0.006-0.019c0.488-1.906,1.415-3.637,2.669-5.075
		c1.346-1.544,2.16-3.562,2.16-5.771c0-4.853-3.934-8.788-8.787-8.788V8.447z M24.138,30.897c0-0.913,0.001-1.276,0.001-2.188
		c0-0.303-0.248-0.551-0.55-0.551h-3.298V33h0.804c0.358,0,0.65-0.29,0.653-0.647C23.079,32.154,24.138,31.669,24.138,30.897"/>
	<path clip-path="url(#SVGID_2_)" fill="#00AFAA" d="M20.291,26.273V9.702c-2.774,0-5.022,2.248-5.022,5.022
		c0,0.346-0.281,0.627-0.626,0.627c-0.348,0-0.629-0.281-0.629-0.627l0.001-0.022c0.012-3.45,2.805-6.243,6.254-6.255h0.022V5.936
		c-4.853,0-8.787,3.934-8.787,8.788c0,2.186,0.759,4.116,2.164,5.776c1.252,1.438,2.178,3.166,2.665,5.07h0.001
		c0.101,0.398,0.458,0.694,0.885,0.703h0.021H20.291z M20.291,28.158h-3.299c-0.302,0-0.55,0.248-0.55,0.55v2.189
		c0,0.77,1.058,1.256,2.389,1.455C18.834,32.71,19.127,33,19.484,33h0.807V28.158z"/>
</g>
</svg>
