<?xml version="1.0" encoding="utf-8"?>
<!-- Generator: Adobe Illustrator 17.0.0, SVG Export Plug-In . SVG Version: 6.00 Build 0)  -->
<!DOCTYPE svg PUBLIC "-//W3C//DTD SVG 1.1//EN" "http://www.w3.org/Graphics/SVG/1.1/DTD/svg11.dtd">
<svg version="1.1" id="Ebene_1" xmlns="http://www.w3.org/2000/svg" xmlns:xlink="http://www.w3.org/1999/xlink" x="0px" y="0px"
	 width="566.93px" height="566.93px" viewBox="0 0 566.93 566.93" enable-background="new 0 0 566.93 566.93" xml:space="preserve">
<g>
	<path fill-rule="evenodd" clip-rule="evenodd" fill="#036965" d="M283.45,63.111h48.84c9.697,0,17.632,7.935,17.632,17.632v381.758
		h35.268V289.018c0-9.697,7.935-17.632,17.628-17.632h97.69c9.697,0,17.632,7.935,17.632,17.632v173.483h35.284v42.707H283.45
		V63.111z"/>
	<path fill-rule="evenodd" clip-rule="evenodd" fill="#00C8C2" d="M181.709,462.501h35.264V80.743
		c0-9.697,7.935-17.632,17.632-17.632h48.845v442.097H13.476v-42.707H48.76V212.017c0-9.697,7.935-17.632,17.632-17.632h97.685
		c9.697,0,17.632,7.935,17.632,17.632V462.501z"/>
</g>
</svg>
