<?xml version="1.0" encoding="utf-8"?>
<!-- Generator: Adobe Illustrator 17.0.0, SVG Export Plug-In . SVG Version: 6.00 Build 0)  -->
<!DOCTYPE svg PUBLIC "-//W3C//DTD SVG 1.1//EN" "http://www.w3.org/Graphics/SVG/1.1/DTD/svg11.dtd">
<svg version="1.1" id="Ebene_1" xmlns="http://www.w3.org/2000/svg" xmlns:xlink="http://www.w3.org/1999/xlink" x="0px" y="0px"
	 width="566.93px" height="566.93px" viewBox="0 0 566.93 566.93" enable-background="new 0 0 566.93 566.93" xml:space="preserve">
<g>
	<path fill-rule="evenodd" clip-rule="evenodd" fill="#2B3540" d="M334.595,158.237c23.873-48.13,102.59-121.508-6.491-93.237
		l-25.208,54.609l2.715-58.676c-4.232-3.496-11.406-7.944-20.235-12.432V247.22h10.117v22.528
		c22.118,1.62,43.163,9.987,43.163,9.987l-1.358,40.458h-16.174l-6.742-24.273c0,0-12.147-5.407-25.63-5.407
		c-1.152,0-2.281,0.034-3.377,0.097v50.047c25.072,9.576,57.319,17.548,57.319,51.01c0,29.941-20.772,46.122-47.201,50.975v28.734
		h-10.117v69.967c75.272-0.113,150.475-4.699,220.192-13.779c16.539-4.335,34.459-30.888,29.965-40.767
		c-4.505-9.89-14.816-23.885-31.71-35.029l-61.39,31.755c-0.046-0.513,52.698-61.698,52.71-62.154
		c8.406-119.666-75.705-206.036-154.57-236.303C386.267,183.765,379.696,166.764,334.595,158.237L334.595,158.237z M285.376,369.669
		c16.688,5.999,30.627,12.359,30.627,27.398c0,14.994-14.452,22.659-30.627,24.415V369.669z"/>
	<path fill-rule="evenodd" clip-rule="evenodd" fill="#00C8C2" d="M285.376,48.501c-52.059-26.475-161.744-54.175-65.177,105.732
		c-1.619,0.269-3.136,0.559-4.471,0.862c-29.816,6.81-28.38,30.814-0.273,29.97l11.361,0.012
		c-79.332,31.55-164.847,121.747-156.384,242.508c0.034,0.45,17.475,33.854,17.429,34.367l-25.813-10.642
		c-16.893,11.144-26.007,25.711-30.501,35.589c-4.506,9.89,11.554,36.329,28.095,40.664c71.427,9.296,148.615,13.894,225.734,13.779
		v-69.967H275.27v-27.102c-25.642-0.536-47.212-9.445-47.212-9.445v-43.162h18.878l5.395,24.821c0,0,9.707,5.389,25.631,5.389
		c2.487,0,4.972-0.131,7.413-0.394v-51.814c-24.912-8.966-55.972-17.122-55.972-52.168c0-28.864,20.772-43.442,45.866-46.933V247.22
		h10.106V48.501L285.376,48.501z M285.376,290.61v50.047c-15.946-6.097-28.995-12.838-28.995-27.205
		C256.381,301.959,266.053,291.676,285.376,290.61z"/>
</g>
</svg>
